<?xml version="1.0" encoding="utf-8"?>
<!-- Generator: Adobe Illustrator 21.1.0, SVG Export Plug-In . SVG Version: 6.00 Build 0)  -->
<svg version="1.1" id="Camada_1" xmlns="http://www.w3.org/2000/svg" xmlns:xlink="http://www.w3.org/1999/xlink" x="0px" y="0px"
	 viewBox="0 0 596 510" style="enable-background:new 0 0 596 510;" xml:space="preserve">
<style type="text/css">
	.st0{display:none;fill:#122147;}
	.st1{opacity:0.3;fill:#233F81;}
	.st2{opacity:0.61;}
	.st3{fill:#9FA0A4;}
	.st4{fill:#2F4165;}
	.st5{opacity:0.5;clip-path:url(#SVGID_2_);fill:#ECF1F8;}
	.st6{clip-path:url(#SVGID_2_);fill:#122147;}
	.st7{clip-path:url(#SVGID_2_);fill:#152D58;}
	.st8{opacity:0.8;clip-path:url(#SVGID_2_);fill:#ECF1F8;}
	.st9{clip-path:url(#SVGID_2_);fill:#ECF1F8;}
	.st10{opacity:0.9;}
	.st11{fill:#152040;}
	.st12{fill:#A9B063;}
	.st13{fill:#D6D6D7;}
	.st14{fill:#DBE3F2;}
	.st15{fill:#677EB6;}
	.st16{fill:#1D74AF;}
	.st17{fill:#304089;}
	.st18{fill:#FFFFFF;}
	.st19{fill:#9C6564;}
	.st20{clip-path:url(#SVGID_4_);fill:#372524;}
	.st21{fill:#D89694;}
	.st22{fill:#372524;}
	.st23{fill:#0C2040;}
	.st24{clip-path:url(#SVGID_6_);fill:#3164A4;}
	.st25{clip-path:url(#SVGID_6_);fill:#FFFFFF;}
	.st26{fill:#EDEDEC;}
	.st27{opacity:0.3;fill:#606066;}
	.st28{opacity:0.3;}
	.st29{clip-path:url(#SVGID_8_);}
	.st30{fill:#309B94;}
	.st31{fill:#CE7897;}
	.st32{fill:#61A67E;}
	.st33{clip-path:url(#SVGID_10_);}
	.st34{fill:#252323;}
	.st35{fill:#E5E7EC;}
	.st36{fill:#22408D;}
	.st37{clip-path:url(#SVGID_12_);fill:#0C1535;}
	.st38{fill:#263768;}
	.st39{fill:#252E6E;}
	.st40{fill:#213789;}
</style>
<image style="display:none;overflow:visible;" width="800" height="600" xlink:href="581292A8.jpg"  transform="matrix(1 0 0 1 -101.5 1)">
</image>
<rect x="-47.5" y="1" class="st0" width="696" height="563"/>
<g id="Luz">
	<g>
		<polyline class="st1" points="264.1,75.7 74.8,503.1 530.3,503.1 340.8,75.7 264.1,75.7 		"/>
	</g>
</g>
<g id="Quadro" class="st2">
	<rect x="193.8" y="162.5" class="st3" width="214.3" height="131.5"/>
	<rect x="202.5" y="170.6" class="st4" width="197" height="115.3"/>
	<g>
		<defs>
			<rect id="SVGID_1_" x="202.5" y="170.6" width="197" height="115.3"/>
		</defs>
		<clipPath id="SVGID_2_">
			<use xlink:href="#SVGID_1_"  style="overflow:visible;"/>
		</clipPath>
		<circle class="st5" cx="222.9" cy="181.1" r="73.6"/>
		<polygon class="st6" points="301,314 399.5,314 399.5,222.4 399.5,204 392.5,204.4 388.8,204.4 388.8,285.9 378.5,285.9 
			378.5,233.7 368.8,223.5 368.8,216.1 363.5,216.1 363.5,223.2 353.8,233.4 353.8,303.7 333.3,287.2 333.3,245.7 326.8,245.7 
			326.8,235.1 326.8,235.1 320.3,225.3 313.5,225.3 306.5,234.4 306.5,234.4 306.5,246.1 301,246.1 301,273.1 		"/>
		<polygon class="st7" points="348.5,263.6 373.2,263.6 373.2,316.2 345.7,316.2 345.7,263.6 		"/>
		<polygon class="st7" points="383.6,247.6 408.2,247.6 408.2,300.2 380.7,300.2 380.7,247.6 		"/>
		<polygon class="st7" points="317.1,258.9 341.8,258.9 341.8,311.5 314.3,311.5 314.3,258.9 		"/>
		<circle class="st8" cx="222.9" cy="181.1" r="64.1"/>
		<circle class="st9" cx="222.9" cy="181.1" r="50.9"/>
		<polygon class="st6" points="394.5,204.3 394.5,186.3 399.5,186.3 399.5,209 		"/>
		<polygon class="st6" points="314.3,235.3 316,196.3 319.9,235.3 		"/>
		<polygon class="st6" points="363.9,240.6 365.6,201.7 369.5,240.6 		"/>
	</g>
</g>
<g id="Lapis" class="st10">
	<ellipse class="st11" cx="193.8" cy="467" rx="11.8" ry="4.9"/>
	<path class="st12" d="M186.1,503L186.1,503c-0.8,0-1.4-0.6-1.4-1.4v-44.8c0-0.8,0.6-1.4,1.4-1.4l0,0c0.8,0,1.4,0.6,1.4,1.4v44.8
		C187.5,502.4,186.9,503,186.1,503z"/>
	<rect x="188.8" y="445.5" class="st13" width="2.8" height="47.5"/>
	<g>
		<path class="st14" d="M188.8,472.9v-1.6c-0.4-0.1-0.8-0.2-1.3-0.3v1.6C187.9,472.8,188.3,472.9,188.8,472.9z"/>
		<path class="st14" d="M187.5,461.8v1.1c0.4-0.1,0.8-0.2,1.3-0.3v-1C188.3,461.6,187.9,461.7,187.5,461.8z"/>
		<path class="st14" d="M179.8,467.3c0-1.9,1.9-3.6,5-4.7v1.3c-1.7,0.8-2.8,1.9-2.8,3.1c0,1.2,1,2.3,2.8,3.1c3.4,1.8,9,1.7,9,1.7
			c6.5,0,11.8-2.2,11.8-4.9c0-2.7-5.3-4.9-11.8-4.9c-0.8,0-1.5,0-2.3,0.1v-1c0.7-0.1,1.5-0.1,2.3-0.1c7.7,0,14,2.7,14,6.1
			c0,3.4-6.3,6.1-14,6.1c-0.8,0-1.5,0-2.3-0.1C191.5,473.3,180.2,472.5,179.8,467.3"/>
	</g>
	<path class="st15" d="M179.8,466v38.8h28v-37.5c0,0-0.4,5.9-13.6,5.9C178.2,473.1,179.8,466,179.8,466z"/>
	<path class="st16" d="M189,451.9c0.6,0.1,1.3,0.2,2.1,0c0.6-0.1,1.1-0.7,1.1-1.3c0.1-2.7,0.2-10.2-1.9-11.5
		c-0.3-0.2-0.8-0.2-1.1,0.1c-1.7,1.9-1.5,8.9-1.4,11.4C188,451.2,188.4,451.7,189,451.9z"/>
</g>
<g id="Body">
	<g>
		<g>
			<ellipse class="st17" cx="303.7" cy="410.7" rx="55.5" ry="35.3"/>
			<path class="st18" d="M303.7,380.3c29.3,0,53.3,14.5,55.3,32.8c0.1-0.8,0.2-1.7,0.2-2.5c0-19.5-24.8-35.3-55.5-35.3
				s-55.5,15.8-55.5,35.3c0,0.8,0.1,1.7,0.2,2.5C250.3,394.8,274.3,380.3,303.7,380.3z"/>
		</g>
		<g>
			<path class="st19" d="M286.8,377.8l13.9,18.7c1.3,1.8,3.8,1.8,5.1,0l13.5-18.7H286.8z"/>
			<g>
				<defs>
					<path id="SVGID_3_" d="M286.8,377.8l13.9,18.7c1.3,1.8,3.8,1.8,5.1,0l13.5-18.7H286.8z"/>
				</defs>
				<clipPath id="SVGID_4_">
					<use xlink:href="#SVGID_3_"  style="overflow:visible;"/>
				</clipPath>
				<path class="st20" d="M286.8,377.8c0,0,6.5,7.7,13.9,9.8c1.8,0.5,2.9,0.7,3.6,0.8c0.3,0,0.5,0.4,0.2,0.7l-8,7.6l-11.1-18.8
					H286.8z"/>
			</g>
		</g>
		<ellipse class="st21" cx="303.5" cy="356" rx="23.3" ry="32.3"/>
		<g>
			<circle class="st22" cx="303" cy="370.7" r="3.5"/>
			<rect x="299.5" y="352.1" class="st19" width="7" height="18.9"/>
		</g>
		<g>
			
				<ellipse transform="matrix(0.9553 -0.2957 0.2957 0.9553 -92.6813 97.7351)" class="st21" cx="276.8" cy="355.3" rx="4.4" ry="8.3"/>
			
				<ellipse transform="matrix(0.2957 -0.9553 0.9553 0.2957 -108.7697 564.1473)" class="st21" cx="328.2" cy="355.8" rx="6.4" ry="4.4"/>
		</g>
	</g>
	<g>
		<path class="st22" d="M285.2,352.4c2.2-0.2,9.7-0.7,12.7,1.1c0.3,0.2,0.4,0.4,0.3,0.7l-0.2,1.1c-0.1,0.4-0.4,0.6-0.8,0.5
			c-1.9-0.3-7.9-1-12-1c-0.4,0-0.7-0.3-0.7-0.7v-1.1C284.5,352.8,284.8,352.5,285.2,352.4z"/>
		<path class="st22" d="M321.6,352.4c-2.2-0.2-9.7-0.6-12.7,1.1c-0.3,0.2-0.4,0.5-0.3,0.8l0.2,1c0.1,0.4,0.4,0.6,0.8,0.6
			c1.9-0.3,7.8-1,12-1c0.4,0,0.7-0.3,0.7-0.7v-1.1C322.2,352.8,321.9,352.5,321.6,352.4z"/>
	</g>
	<path class="st23" d="M342.5,312.6c-0.1-0.5-0.6-0.9-1.2-0.8c-15.4,2.2-21.6-3-36.7-5.8c-12.6-2.3-19.1,8.3-21.1,12.3
		c-0.3,0.6-1,0.7-1.6,0.4c-0.6-0.4-1.4-0.7-2.7-0.6c0,0-0.1,0-0.1,0c-1.9,0.2-3.3,1.9-3.1,3.8l1.7,37.3c0,0.6,0.5,1,1.1,1
		c0.5,0,1-0.4,1-0.9l2.8-16.3c0.1-0.6,0.6-1.1,1.2-1.2c1.8-0.2,5.3-1.1,5.5-5c0.1-1.5,0.3-2.4,0.5-3.1c0.2-0.7,1.1-1,1.7-0.5
		c5,4.2,13,5.8,18.4,6.3c2.2,0.2,5.5,0.2,9.2-0.3l1.5,0.8c1.7,0.9,2.8,2.5,3.1,4.4l2,15c0.1,0.5,0.5,0.9,1,0.9c0.5,0,1-0.4,1-0.9
		l-0.1-22.5c3.5-1.5,6.9-3.8,9.7-7.2C343.6,321.7,343,315,342.5,312.6z"/>
	<g>
		<defs>
			<path id="SVGID_5_" d="M342.5,312.6c-0.1-0.5-0.6-0.9-1.2-0.8c-15.4,2.2-21.6-3-36.7-5.8c-12.6-2.3-19.1,8.3-21.1,12.3
				c-0.3,0.6-1,0.7-1.6,0.4c-0.6-0.4-1.4-0.7-2.7-0.6c0,0-0.1,0-0.1,0c-1.9,0.2-3.3,1.9-3.1,3.8l1.7,37.3c0,0.6,0.5,1,1.1,1
				c0.5,0,1-0.4,1-0.9l2.8-16.3c0.1-0.6,0.6-1.1,1.2-1.2c1.8-0.2,5.3-1.1,5.5-5c0.1-1.5,0.3-2.4,0.5-3.1c0.2-0.7,1.1-1,1.7-0.5
				c5,4.2,13,5.8,18.4,6.3c2.2,0.2,5.5,0.2,9.2-0.3l1.5,0.8c1.7,0.9,2.8,2.5,3.1,4.4l2,15c0.1,0.5,0.5,0.9,1,0.9c0.5,0,1-0.4,1-0.9
				l-0.1-22.5c3.5-1.5,6.9-3.8,9.7-7.2C343.6,321.7,343,315,342.5,312.6z"/>
		</defs>
		<clipPath id="SVGID_6_">
			<use xlink:href="#SVGID_5_"  style="overflow:visible;"/>
		</clipPath>
		<path class="st24" d="M283.2,318.6c0,0,1.6-6.4,6.9-9.7c5.5-3.4,13.4-6.4,26.1-0.8s26.6,3.2,26.6,3.2s-0.1,3.6-5.4,5.2
			s-15.8,2.9-24.3,0C303.5,313.1,289.7,312,283.2,318.6z"/>
		<path class="st25" d="M290.1,309.8c0,0,6.6-4.1,16.3-1.9c16.6,3.8,23.8,7.9,36.1,3.8s-11.9-3-12.1-2.8c-0.2,0.1-20.3-2.3-28.9-3.3
			c-0.2,0-0.4,0-0.6-0.1c-3.8-0.3-7.6,1.2-10.4,3.9L290.1,309.8z"/>
	</g>
	<g>
		<path class="st26" d="M306.8,357.5h20.6v5.9c0,0-1.7,4.2-1.8,4.3s-4.2,3.2-4.2,3.2l-6,0.3l-5.2-3l-2.3-3.2l-1-5.2V357.5z"/>
		<path class="st26" d="M277.5,357.5h20.6v5.9c0,0-2,4-2,4.5c0,0.1-4.6,2.8-4.6,2.8l-5.6,0.8l-5.4-2.4l-2.8-3.9l-0.3-5.3V357.5z"/>
		<path class="st27" d="M306.8,357.5h20.6v5.9c0,0-1.7,4.2-1.8,4.3s-4.2,3.2-4.2,3.2l-6,0.3l-5.2-3l-2.3-3.2l-1-5.2V357.5z"/>
		<path class="st27" d="M277.5,357.5h20.6v5.9c0,0-2,4-2,4.5c0,0.1-4.6,2.8-4.6,2.8l-5.6,0.8l-5.4-2.4l-2.8-3.9l-0.3-5.3V357.5z"/>
		<g class="st28">
			<defs>
				<path id="SVGID_7_" class="st28" d="M306.8,357.5h20.6v5.9c0,0-1.7,4.2-1.8,4.3s-4.2,3.2-4.2,3.2l-6,0.3l-5.2-3l-2.3-3.2l-1-5.2
					V357.5z"/>
			</defs>
			<clipPath id="SVGID_8_">
				<use xlink:href="#SVGID_7_"  style="overflow:visible;"/>
			</clipPath>
			<g id="Code_2_" class="st29">
				<path class="st30" d="M313.9,372.8h-29.8c-0.6,0-1.2-0.5-1.2-1.2v-0.6c0-0.6,0.5-1.2,1.2-1.2h29.8c0.6,0,1.2,0.5,1.2,1.2v0.6
					C315,372.3,314.5,372.8,313.9,372.8z"/>
				<path class="st14" d="M321.6,377.3h-18c-0.6,0-1.2-0.5-1.2-1.2v-0.6c0-0.6,0.5-1.2,1.2-1.2h18c0.6,0,1.2,0.5,1.2,1.2v0.6
					C322.8,376.8,322.2,377.3,321.6,377.3z"/>
				<path class="st31" d="M321.6,372.8h-3.3c-0.6,0-1.2-0.5-1.2-1.2v-0.6c0-0.6,0.5-1.2,1.2-1.2h3.3c0.6,0,1.2,0.5,1.2,1.2v0.6
					C322.8,372.3,322.2,372.8,321.6,372.8z"/>
				<path class="st14" d="M292.8,386.3h-8.7c-0.6,0-1.2-0.5-1.2-1.2v-0.6c0-0.6,0.5-1.2,1.2-1.2h8.7c0.6,0,1.2,0.5,1.2,1.2v0.6
					C293.9,385.8,293.4,386.3,292.8,386.3z"/>
				<path class="st31" d="M321.6,386.3h-24.7c-0.6,0-1.2-0.5-1.2-1.2v-0.6c0-0.6,0.5-1.2,1.2-1.2h24.7c0.6,0,1.2,0.5,1.2,1.2v0.6
					C322.8,385.8,322.2,386.3,321.6,386.3z"/>
				<path class="st32" d="M287.7,390.8h-3.6c-0.6,0-1.2-0.5-1.2-1.2v-0.6c0-0.6,0.5-1.2,1.2-1.2h3.6c0.6,0,1.2,0.5,1.2,1.2v0.6
					C288.9,390.3,288.3,390.8,287.7,390.8z"/>
				<path class="st13" d="M306.2,390.8h-14.5c-0.6,0-1.2-0.5-1.2-1.2v-0.6c0-0.6,0.5-1.2,1.2-1.2h14.5c0.6,0,1.2,0.5,1.2,1.2v0.6
					C307.4,390.3,306.9,390.8,306.2,390.8z"/>
				<path class="st30" d="M321.6,390.8h-11.8c-0.6,0-1.2-0.5-1.2-1.2v-0.6c0-0.6,0.5-1.2,1.2-1.2h11.8c0.6,0,1.2,0.5,1.2,1.2v0.6
					C322.8,390.3,322.2,390.8,321.6,390.8z"/>
				<path class="st32" d="M299.3,377.3h-15.3c-0.6,0-1.2-0.5-1.2-1.2v-0.6c0-0.6,0.5-1.2,1.2-1.2h15.3c0.6,0,1.2,0.5,1.2,1.2v0.6
					C300.5,376.8,300,377.3,299.3,377.3z"/>
				<path class="st14" d="M321.6,381.8h-10.8c-0.6,0-1.2-0.5-1.2-1.2v-0.6c0-0.6,0.5-1.2,1.2-1.2h10.8c0.6,0,1.2,0.5,1.2,1.2v0.6
					C322.8,381.3,322.2,381.8,321.6,381.8z"/>
				<path class="st13" d="M307.5,381.8h-23.4c-0.6,0-1.2-0.5-1.2-1.2v-0.6c0-0.6,0.5-1.2,1.2-1.2h23.4c0.6,0,1.2,0.5,1.2,1.2v0.6
					C308.7,381.3,308.1,381.8,307.5,381.8z"/>
				<path class="st30" d="M313.9,349.8h-29.8c-0.6,0-1.2-0.5-1.2-1.2V348c0-0.6,0.5-1.2,1.2-1.2h29.8c0.6,0,1.2,0.5,1.2,1.2v0.6
					C315,349.3,314.5,349.8,313.9,349.8z"/>
				<path class="st14" d="M321.6,354.3h-18c-0.6,0-1.2-0.5-1.2-1.2v-0.6c0-0.6,0.5-1.2,1.2-1.2h18c0.6,0,1.2,0.5,1.2,1.2v0.6
					C322.8,353.8,322.2,354.3,321.6,354.3z"/>
				<path class="st31" d="M321.6,349.8h-3.3c-0.6,0-1.2-0.5-1.2-1.2V348c0-0.6,0.5-1.2,1.2-1.2h3.3c0.6,0,1.2,0.5,1.2,1.2v0.6
					C322.8,349.3,322.2,349.8,321.6,349.8z"/>
				<path class="st14" d="M292.8,363.3h-8.7c-0.6,0-1.2-0.5-1.2-1.2v-0.6c0-0.6,0.5-1.2,1.2-1.2h8.7c0.6,0,1.2,0.5,1.2,1.2v0.6
					C293.9,362.8,293.4,363.3,292.8,363.3z"/>
				<path class="st31" d="M310.3,363.3h-13.3c-0.6,0-1.2-0.5-1.2-1.2v-0.6c0-0.6,0.5-1.2,1.2-1.2h13.3c0.6,0,1.2,0.5,1.2,1.2v0.6
					C311.4,362.8,310.9,363.3,310.3,363.3z"/>
				<path class="st32" d="M287.7,367.8h-3.6c-0.6,0-1.2-0.5-1.2-1.2V366c0-0.6,0.5-1.2,1.2-1.2h3.6c0.6,0,1.2,0.5,1.2,1.2v0.6
					C288.9,367.3,288.3,367.8,287.7,367.8z"/>
				<path class="st13" d="M306.2,367.8h-14.5c-0.6,0-1.2-0.5-1.2-1.2V366c0-0.6,0.5-1.2,1.2-1.2h14.5c0.6,0,1.2,0.5,1.2,1.2v0.6
					C307.4,367.3,306.9,367.8,306.2,367.8z"/>
				<path class="st30" d="M321.6,367.8h-11.8c-0.6,0-1.2-0.5-1.2-1.2V366c0-0.6,0.5-1.2,1.2-1.2h11.8c0.6,0,1.2,0.5,1.2,1.2v0.6
					C322.8,367.3,322.2,367.8,321.6,367.8z"/>
				<path class="st32" d="M299.3,354.3h-15.3c-0.6,0-1.2-0.5-1.2-1.2v-0.6c0-0.6,0.5-1.2,1.2-1.2h15.3c0.6,0,1.2,0.5,1.2,1.2v0.6
					C300.5,353.8,300,354.3,299.3,354.3z"/>
				<path class="st32" d="M321.6,363.3h-6.8c-0.6,0-1.2-0.5-1.2-1.2v-0.6c0-0.6,0.5-1.2,1.2-1.2h6.8c0.6,0,1.2,0.5,1.2,1.2v0.6
					C322.8,362.8,322.2,363.3,321.6,363.3z"/>
				<path class="st14" d="M321.6,358.8h-10.8c-0.6,0-1.2-0.5-1.2-1.2V357c0-0.6,0.5-1.2,1.2-1.2h10.8c0.6,0,1.2,0.5,1.2,1.2v0.6
					C322.8,358.3,322.2,358.8,321.6,358.8z"/>
				<path class="st13" d="M307.5,358.8h-23.4c-0.6,0-1.2-0.5-1.2-1.2V357c0-0.6,0.5-1.2,1.2-1.2h23.4c0.6,0,1.2,0.5,1.2,1.2v0.6
					C308.7,358.3,308.1,358.8,307.5,358.8z"/>
			</g>
		</g>
		<g class="st28">
			<defs>
				<path id="SVGID_9_" class="st28" d="M277.5,357.5h20.6v5.9c0,0-2,4-2,4.5c0,0.1-4.6,2.8-4.6,2.8l-5.6,0.8l-5.4-2.4l-2.8-3.9
					l-0.3-5.3V357.5z"/>
			</defs>
			<clipPath id="SVGID_10_">
				<use xlink:href="#SVGID_9_"  style="overflow:visible;"/>
			</clipPath>
			<g id="Code_1_" class="st33">
				<path class="st30" d="M313.9,372.8h-29.8c-0.6,0-1.2-0.5-1.2-1.2v-0.6c0-0.6,0.5-1.2,1.2-1.2h29.8c0.6,0,1.2,0.5,1.2,1.2v0.6
					C315,372.3,314.5,372.8,313.9,372.8z"/>
				<path class="st14" d="M321.6,377.3h-18c-0.6,0-1.2-0.5-1.2-1.2v-0.6c0-0.6,0.5-1.2,1.2-1.2h18c0.6,0,1.2,0.5,1.2,1.2v0.6
					C322.8,376.8,322.2,377.3,321.6,377.3z"/>
				<path class="st31" d="M321.6,372.8h-3.3c-0.6,0-1.2-0.5-1.2-1.2v-0.6c0-0.6,0.5-1.2,1.2-1.2h3.3c0.6,0,1.2,0.5,1.2,1.2v0.6
					C322.8,372.3,322.2,372.8,321.6,372.8z"/>
				<path class="st14" d="M292.8,386.3h-8.7c-0.6,0-1.2-0.5-1.2-1.2v-0.6c0-0.6,0.5-1.2,1.2-1.2h8.7c0.6,0,1.2,0.5,1.2,1.2v0.6
					C293.9,385.8,293.4,386.3,292.8,386.3z"/>
				<path class="st31" d="M321.6,386.3h-24.7c-0.6,0-1.2-0.5-1.2-1.2v-0.6c0-0.6,0.5-1.2,1.2-1.2h24.7c0.6,0,1.2,0.5,1.2,1.2v0.6
					C322.8,385.8,322.2,386.3,321.6,386.3z"/>
				<path class="st32" d="M287.7,390.8h-3.6c-0.6,0-1.2-0.5-1.2-1.2v-0.6c0-0.6,0.5-1.2,1.2-1.2h3.6c0.6,0,1.2,0.5,1.2,1.2v0.6
					C288.9,390.3,288.3,390.8,287.7,390.8z"/>
				<path class="st13" d="M306.2,390.8h-14.5c-0.6,0-1.2-0.5-1.2-1.2v-0.6c0-0.6,0.5-1.2,1.2-1.2h14.5c0.6,0,1.2,0.5,1.2,1.2v0.6
					C307.4,390.3,306.9,390.8,306.2,390.8z"/>
				<path class="st30" d="M321.6,390.8h-11.8c-0.6,0-1.2-0.5-1.2-1.2v-0.6c0-0.6,0.5-1.2,1.2-1.2h11.8c0.6,0,1.2,0.5,1.2,1.2v0.6
					C322.8,390.3,322.2,390.8,321.6,390.8z"/>
				<path class="st32" d="M299.3,377.3h-15.3c-0.6,0-1.2-0.5-1.2-1.2v-0.6c0-0.6,0.5-1.2,1.2-1.2h15.3c0.6,0,1.2,0.5,1.2,1.2v0.6
					C300.5,376.8,300,377.3,299.3,377.3z"/>
				<path class="st14" d="M321.6,381.8h-10.8c-0.6,0-1.2-0.5-1.2-1.2v-0.6c0-0.6,0.5-1.2,1.2-1.2h10.8c0.6,0,1.2,0.5,1.2,1.2v0.6
					C322.8,381.3,322.2,381.8,321.6,381.8z"/>
				<path class="st13" d="M307.5,381.8h-23.4c-0.6,0-1.2-0.5-1.2-1.2v-0.6c0-0.6,0.5-1.2,1.2-1.2h23.4c0.6,0,1.2,0.5,1.2,1.2v0.6
					C308.7,381.3,308.1,381.8,307.5,381.8z"/>
				<path class="st30" d="M313.9,349.8h-29.8c-0.6,0-1.2-0.5-1.2-1.2V348c0-0.6,0.5-1.2,1.2-1.2h29.8c0.6,0,1.2,0.5,1.2,1.2v0.6
					C315,349.3,314.5,349.8,313.9,349.8z"/>
				<path class="st14" d="M321.6,354.3h-18c-0.6,0-1.2-0.5-1.2-1.2v-0.6c0-0.6,0.5-1.2,1.2-1.2h18c0.6,0,1.2,0.5,1.2,1.2v0.6
					C322.8,353.8,322.2,354.3,321.6,354.3z"/>
				<path class="st31" d="M321.6,349.8h-3.3c-0.6,0-1.2-0.5-1.2-1.2V348c0-0.6,0.5-1.2,1.2-1.2h3.3c0.6,0,1.2,0.5,1.2,1.2v0.6
					C322.8,349.3,322.2,349.8,321.6,349.8z"/>
				<path class="st14" d="M292.8,363.3h-8.7c-0.6,0-1.2-0.5-1.2-1.2v-0.6c0-0.6,0.5-1.2,1.2-1.2h8.7c0.6,0,1.2,0.5,1.2,1.2v0.6
					C293.9,362.8,293.4,363.3,292.8,363.3z"/>
				<path class="st31" d="M310.3,363.3h-13.3c-0.6,0-1.2-0.5-1.2-1.2v-0.6c0-0.6,0.5-1.2,1.2-1.2h13.3c0.6,0,1.2,0.5,1.2,1.2v0.6
					C311.4,362.8,310.9,363.3,310.3,363.3z"/>
				<path class="st32" d="M287.7,367.8h-3.6c-0.6,0-1.2-0.5-1.2-1.2V366c0-0.6,0.5-1.2,1.2-1.2h3.6c0.6,0,1.2,0.5,1.2,1.2v0.6
					C288.9,367.3,288.3,367.8,287.7,367.8z"/>
				<path class="st13" d="M306.2,367.8h-14.5c-0.6,0-1.2-0.5-1.2-1.2V366c0-0.6,0.5-1.2,1.2-1.2h14.5c0.6,0,1.2,0.5,1.2,1.2v0.6
					C307.4,367.3,306.9,367.8,306.2,367.8z"/>
				<path class="st30" d="M321.6,367.8h-11.8c-0.6,0-1.2-0.5-1.2-1.2V366c0-0.6,0.5-1.2,1.2-1.2h11.8c0.6,0,1.2,0.5,1.2,1.2v0.6
					C322.8,367.3,322.2,367.8,321.6,367.8z"/>
				<path class="st32" d="M299.3,354.3h-15.3c-0.6,0-1.2-0.5-1.2-1.2v-0.6c0-0.6,0.5-1.2,1.2-1.2h15.3c0.6,0,1.2,0.5,1.2,1.2v0.6
					C300.5,353.8,300,354.3,299.3,354.3z"/>
				<path class="st32" d="M321.6,363.3h-6.8c-0.6,0-1.2-0.5-1.2-1.2v-0.6c0-0.6,0.5-1.2,1.2-1.2h6.8c0.6,0,1.2,0.5,1.2,1.2v0.6
					C322.8,362.8,322.2,363.3,321.6,363.3z"/>
				<path class="st14" d="M321.6,358.8h-10.8c-0.6,0-1.2-0.5-1.2-1.2V357c0-0.6,0.5-1.2,1.2-1.2h10.8c0.6,0,1.2,0.5,1.2,1.2v0.6
					C322.8,358.3,322.2,358.8,321.6,358.8z"/>
				<path class="st13" d="M307.5,358.8h-23.4c-0.6,0-1.2-0.5-1.2-1.2V357c0-0.6,0.5-1.2,1.2-1.2h23.4c0.6,0,1.2,0.5,1.2,1.2v0.6
					C308.7,358.3,308.1,358.8,307.5,358.8z"/>
			</g>
		</g>
		<path class="st34" d="M327.3,357.1h-49.7c-0.5,0-0.9,0.4-0.9,0.9v3.2c0,4.1,2.2,7.9,5.9,9.7c1.4,0.6,2.9,1.1,4.8,1.1
			c0.1,0,0.2,0,0.3,0c5.9-0.1,11.9-5,11.9-10.9v-1.7c0-0.4,0.4-0.8,0.8-0.8l5.4,0c0.4,0,0.8,0.4,0.8,0.8l0,2
			c0,5.7,5.5,10.5,11.2,10.6c0.1,0,0.1,0,0.2,0c0.1,0,0.2,0,0.3,0c5.6-0.1,10.1-4.7,10.1-10.3V358
			C328.3,357.5,327.8,357.1,327.3,357.1z M298,361.5c0,5.1-5.5,9.3-10.6,9.3c-0.1,0-0.1,0-0.2,0c-1.6,0-3-0.4-4.1-0.9
			c-3.2-1.5-5.1-4.8-5.1-8.3v-2.7c0-0.4,0.4-0.8,0.8-0.8h18.3c0.5,0,0.8,0.4,0.8,0.8V361.5z M327.1,360c0,1.4,0,2.9-0.4,4.2
			c-1,3.4-3.3,5-5.2,6c-3.1,1.4-6.6,0.9-9.4-1.1c-0.1,0-0.1-0.1-0.2-0.1c-3.5-2.6-4.2-5.7-4.2-9.3v-0.8c0-0.5,0.4-0.8,0.8-0.8h17.8
			c0.4,0,0.8,0.4,0.8,0.9V360z"/>
	</g>
</g>
<g id="Lampada">
	<path class="st35" d="M263.8,77H340c0,0-2.3,6-37.8,6C267.9,83,263.8,77,263.8,77z"/>
	<polygon class="st36" points="340.5,76.7 263.8,76.7 281.8,46.7 320.8,46.7 	"/>
	<g>
		<defs>
			<polygon id="SVGID_11_" points="340.5,76.7 263.8,76.7 281.8,46.7 320.8,46.7 			"/>
		</defs>
		<clipPath id="SVGID_12_">
			<use xlink:href="#SVGID_11_"  style="overflow:visible;"/>
		</clipPath>
		<path class="st37" d="M267.2,87.3c0,0-0.3-11.2,29.7-13c11-0.7,9.9-11,6.6-15.7c-1.5-2.1-2.5-4.5-2.7-7c-0.4-4.4,1.1-9.9,11-10.9
			c16.8-1.7,44.8,31,44.8,31l-5.7,18.7L267.2,87.3z"/>
	</g>
</g>
<g id="Mesa">
	<path class="st38" d="M592.6,510H3.4c-1.9,0-3.4-1.5-3.4-3.4l0,0c0-1.9,1.5-3.4,3.4-3.4h589.1c1.9,0,3.4,1.5,3.4,3.4l0,0
		C596,508.5,594.5,510,592.6,510z"/>
	<path class="st39" d="M368.6,494.3H237c-1.4,0-2.5-1.1-2.5-2.5V405c0-2.4,1.9-4.3,4.3-4.3h128c2.4,0,4.3,1.9,4.3,4.3v86.8
		C371.2,493.2,370,494.3,368.6,494.3z"/>
	<path class="st40" d="M369.6,503.1H236.1c-0.9,0-1.6-0.7-1.6-1.6v-5.6c0-0.9,0.7-1.6,1.6-1.6h133.5c0.9,0,1.6,0.7,1.6,1.6v5.6
		C371.2,502.4,370.5,503.1,369.6,503.1z"/>
</g>
</svg>
