<?xml version="1.0" encoding="utf-8"?>
<!-- Generator: Adobe Illustrator 21.1.0, SVG Export Plug-In . SVG Version: 6.00 Build 0)  -->
<svg version="1.1" id="Camada_1" xmlns="http://www.w3.org/2000/svg" xmlns:xlink="http://www.w3.org/1999/xlink" x="0px" y="0px"
	 viewBox="0 0 254 102.5" style="enable-background:new 0 0 254 102.5;" xml:space="preserve">
<style type="text/css">
	.st0{fill:#FFFFFF;}
</style>
<g>
	<path class="st0" d="M51.2,28L30,50.5l21.2,22.2c3.1,3.2,3.1,8.2,0,11.4l-0.1,0.1c-3.3,3.4-8.7,3.4-12,0l-26.5-28
		c-3-3.2-3-8.2,0-11.4l26.6-28.1c3.2-3.4,8.7-3.5,11.9-0.1l0,0C54.2,19.7,54.3,24.8,51.2,28z"/>
	<path class="st0" d="M203,16.6L203,16.6c3.3-3.4,8.7-3.3,11.9,0.1l26.6,28.1c3,3.2,3,8.2,0,11.4l-26.5,28c-3.3,3.4-8.7,3.4-12,0
		l-0.1-0.1c-3.1-3.2-3.1-8.2,0-11.4l21.2-22.2L203,28C199.9,24.8,200,19.7,203,16.6z"/>
	<path class="st0" d="M114.1,50.2c5.3-3.4,8.3-9.2,8.3-16.4c0-6.6-2.1-12-6.3-16c-8.1-7.9-20.9-7.6-21.4-7.6H74.3
		c-3.9,0-7.1,3.2-7.1,7.1v66.1c0,3.9,3.2,7.1,7.1,7.1h20.5c6.7,0,28.7-1.7,28.7-24.1C123.7,62.2,121.7,54.4,114.1,50.2z M84.7,41.6
		V27.7h10.1l0.1,0c0.1,0,5.3-0.2,8.1,2.5c1.2,1.1,1.7,2.6,1.7,4.5c0,6.8-9.6,6.9-10,6.9H84.7z M105.9,66.1c0,4.6-3.7,7-11.1,7H84.7
		V59.2h10.1l0.1,0c0.1,0,6.2-0.3,9.3,2.6C105.4,62.9,105.9,64.3,105.9,66.1z"/>
	<path class="st0" d="M172.8,56c9-4.1,13.7-11.5,13.7-21.4c0-19.4-18.1-24.5-27.7-24.5h-18.1c-5.2,0-9.5,4.3-9.5,9.5v62.2
		c0,4.9,4,8.8,8.8,8.8s8.8-4,8.8-8.8V59.1h6.1L167,85.5c1.4,3.1,4.6,5.1,8,5.1c3,0,5.8-1.5,7.4-4.1s1.8-5.7,0.6-8.4L172.8,56z
		 M168.9,34.6c0,6.9-9.7,7-10.1,7h-10V27.7h10C159.2,27.7,168.9,27.9,168.9,34.6z"/>
</g>
</svg>
